<?xml version="1.0" standalone="no"?>
<!DOCTYPE svg PUBLIC "-//W3C//DTD SVG 20010904//EN"
 "http://www.w3.org/TR/2001/REC-SVG-20010904/DTD/svg10.dtd">
<svg version="1.0" xmlns="http://www.w3.org/2000/svg"
 width="415.000000pt" height="449.000000pt" viewBox="0 0 415.000000 449.000000"
 preserveAspectRatio="xMidYMid meet">

<g transform="translate(0.000000,449.000000) scale(0.100000,-0.100000)"
fill="#000000" stroke="none">
<path d="M1940 4319 c-894 -63 -1637 -715 -1819 -1596 -31 -151 -41 -254 -41
-418 0 -165 10 -267 42 -420 105 -513 423 -971 883 -1270 380 -248 836 -358
1285 -311 180 19 290 43 450 98 595 203 1077 693 1268 1289 101 314 121 691
56 1019 -178 892 -921 1545 -1834 1609 -80 6 -152 10 -160 9 -8 0 -67 -5 -130
-9z m1290 -1171 c30 -14 75 -42 100 -62 25 -21 70 -47 100 -59 47 -19 58 -29
78 -69 29 -58 22 -107 -23 -156 -58 -64 -170 -53 -215 21 -11 18 -20 42 -20
53 0 28 -80 91 -133 105 -81 22 -171 -18 -267 -115 -69 -71 -95 -105 -215
-281 -205 -302 -356 -435 -550 -485 -166 -42 -248 -27 -473 87 l-173 88 -87 0
c-80 0 -92 -3 -149 -34 -71 -38 -175 -139 -239 -232 -37 -52 -44 -70 -44 -109
0 -148 -184 -202 -260 -77 -41 67 -13 164 54 192 24 10 49 38 89 97 110 164
253 287 391 337 104 37 234 35 331 -4 38 -15 92 -41 119 -57 217 -128 318
-144 463 -73 136 67 211 145 398 418 144 211 211 289 303 355 97 69 176 94
282 89 64 -3 99 -10 140 -29z m-2305 -2017 l40 -123 40 123 40 124 53 3 52 3
0 -185 0 -186 -35 0 -34 0 -3 133 -3 132 -43 -133 c-42 -129 -44 -133 -70
-130 -24 3 -29 12 -69 133 l-42 130 0 -132 -1 -133 -35 0 -35 0 0 186 0 185
52 -3 53 -3 40 -124z m712 103 c87 -64 106 -197 41 -279 -46 -59 -158 -83
-227 -47 -60 30 -92 81 -98 154 -6 83 22 141 88 176 56 30 153 28 196 -4z
m373 14 c6 -7 41 -65 78 -128 l67 -115 3 128 3 127 34 0 35 0 0 -181 0 -180
-47 3 -48 3 -72 125 -73 125 0 -133 0 -132 -35 0 -35 0 0 185 0 185 40 0 c21
0 44 -6 50 -12z m720 -23 l0 -35 -55 0 -54 0 -3 -147 -3 -148 -37 -3 -38 -3 0
150 0 150 -57 3 c-46 2 -58 7 -61 21 -9 45 -1 47 158 47 l150 0 0 -35z m270
-87 c0 -137 9 -167 53 -179 35 -9 84 7 97 31 6 10 10 75 10 144 l0 126 40 0
40 0 0 -127 c0 -142 -11 -179 -63 -217 -22 -16 -43 -21 -97 -21 -54 0 -75 5
-97 21 -52 38 -63 75 -63 217 l0 127 40 0 40 0 0 -122z"/>
<path d="M1495 1191 c-55 -23 -80 -106 -51 -174 30 -74 136 -84 171 -17 17 33
20 122 5 151 -12 22 -61 49 -87 48 -10 0 -27 -4 -38 -8z"/>
</g>
</svg>
