<?xml version="1.0" encoding="UTF-8"?>
<svg version="1.1" xmlns="http://www.w3.org/2000/svg" width="751" height="790">
<path d="M0 0 C247.83 0 495.66 0 751 0 C751 260.7 751 521.4 751 790 C503.17 790 255.34 790 0 790 C0 529.3 0 268.6 0 0 Z " fill="#FBFBFC" transform="translate(0,0)"/>
<path d="M0 0 C1.50837834 1.28187268 3.00926341 2.5726532 4.5 3.875 C5.70661504 4.85628332 6.91467519 5.83579602 8.125 6.8125 C9.300625 7.8334375 9.300625 7.8334375 10.5 8.875 C10.5 9.205 10.5 9.535 10.5 9.875 C9.6646875 10.00455078 9.6646875 10.00455078 8.8125 10.13671875 C-0.08390949 11.77474009 -6.24031709 15.51144393 -11.5 22.875 C-13.83299416 26.87441857 -14.95302804 30.2804355 -15.5 34.875 C-16.15742187 34.32972656 -16.15742187 34.32972656 -16.828125 33.7734375 C-28.32425653 24.66065031 -39.90635088 20.28721656 -54.5 21.875 C-58.84370576 23.00924635 -62.57279247 24.71888606 -66.5 26.875 C-67.39976562 27.3596875 -68.29953125 27.844375 -69.2265625 28.34375 C-81.34647957 35.46900384 -91.05585838 45.76880696 -99.5 56.875 C-99.95729492 57.46796875 -100.41458984 58.0609375 -100.88574219 58.671875 C-107.68775498 67.49610781 -114.04091204 76.53626445 -120.15771484 85.84423828 C-148.78178267 129.14998513 -181.54676842 173.91668797 -235.10546875 185.9609375 C-250.59283246 188.9582107 -267.62277641 188.07306607 -282.5 182.875 C-283.68722656 182.47410156 -284.87445313 182.07320312 -286.09765625 181.66015625 C-297.16526964 177.57638447 -307.27087287 171.6934207 -317.5 165.875 C-336.68430148 154.9851874 -353.21859481 147.23368798 -375.93359375 151.5234375 C-378.60624595 152.45271033 -380.99944183 153.55232604 -383.5 154.875 C-384.54027344 155.37257813 -385.58054687 155.87015625 -386.65234375 156.3828125 C-404.70705621 165.44176974 -418.92592204 180.50058044 -430.20800781 197.01074219 C-431.4843753 198.85245461 -432.80995104 200.64842667 -434.1484375 202.4453125 C-439.1918098 209.43151167 -441.19052939 214.82022151 -441.2890625 223.609375 C-441.72213829 230.31402981 -444.93565374 235.73327298 -449.75 240.3125 C-456.01075232 245.07552924 -463.01972956 246.54193644 -470.796875 246.28125 C-478.33629009 245.14815871 -483.29346167 240.5616265 -488.08984375 234.9375 C-492.826233 228.01003872 -492.2660305 219.90622506 -491.5 211.875 C-490.41301676 208.53821423 -488.92342202 206.38622717 -486.5 203.875 C-485.88382812 203.22917969 -485.26765625 202.58335937 -484.6328125 201.91796875 C-481.42770194 198.85627753 -479.41968295 197.08233924 -475 196.0859375 C-470.5746278 194.55483774 -469.3950845 192.33653687 -467.375 188.375 C-466.61104351 187.00525642 -465.83984981 185.63953106 -465.0625 184.27734375 C-464.65257812 183.55788574 -464.24265625 182.83842773 -463.8203125 182.09716797 C-445.71871945 151.63106221 -417.58316496 126.53003985 -383.6875 115.375 C-351.1412982 107.68037082 -321.9180921 119.73335327 -294.55444336 136.31738281 C-276.74215854 147.04535759 -258.52244157 153.34133575 -237.625 148.375 C-199.24821721 138.35718867 -175.36639695 102.83360915 -154.5 71.875 C-152.27779846 68.58207883 -150.05435571 65.29001743 -147.82641602 62.00097656 C-146.40599892 59.90335274 -144.98831355 57.80387529 -143.57397461 55.70214844 C-123.79506643 26.48325203 -97.63029425 -7.00791263 -60.97265625 -14.72265625 C-38.8916522 -17.2809728 -17.80629881 -14.08557965 0 0 Z " fill="#2E9C78" transform="translate(594.5,233.125)"/>
<path d="M0 0 C3.65523681 2.58080236 5.94379474 5.01318022 8.1875 8.875 C8.92033203 10.10863281 8.92033203 10.10863281 9.66796875 11.3671875 C14.43993037 20.79915857 14.65478259 32.52446647 12.0546875 42.69921875 C8.26440882 52.19875367 3.3912465 57.80323723 -6 62 C-15.03111678 65.45149612 -24.54129161 64.92232425 -33.421875 61.33203125 C-41.1249049 57.35213247 -46.46890446 51.10849513 -49.75 43.125 C-52.98216183 32.55350938 -51.89928523 20.81552301 -47 11 C-42.65553117 3.06010869 -36.56460341 -1.5303543 -28.01953125 -4.30078125 C-17.82317883 -6.66190296 -9.09103192 -5.08028255 0 0 Z " fill="#329A77" transform="translate(512,574)"/>
<path d="M0 0 C5.02790547 3.48664099 8.72597188 8.41670857 10.08984375 14.44921875 C11.02249106 23.99179307 10.43287139 30.72539156 4.65234375 38.34375 C-0.42090679 44.13652405 -6.7853045 46.6369465 -14.30078125 47.828125 C-21.00940957 48.19170451 -26.55132625 45.94681029 -31.890625 41.9765625 C-37.53464795 36.88611109 -40.28806897 30.94467964 -41.32421875 23.45703125 C-41.67143353 16.27516767 -40.40389271 11.10437985 -35.91015625 5.44921875 C-25.69983436 -5.50872085 -13.21339497 -7.4740273 0 0 Z " fill="#F5BB37" transform="translate(619.91015625,247.55078125)"/>
<path d="M0 0 C4.27953647 3.24654491 6.78274108 7.89360716 9.15234375 12.6328125 C9.15234375 14.6128125 9.15234375 16.5928125 9.15234375 18.6328125 C4.53234375 18.6328125 -0.08765625 18.6328125 -4.84765625 18.6328125 C-5.83765625 16.6528125 -6.82765625 14.6728125 -7.84765625 12.6328125 C-12.27203681 8.54026048 -15.71052803 7.26233631 -21.7890625 7.3515625 C-26.3158439 7.9700222 -29.11629079 10.84049992 -32.09765625 14.0703125 C-36.70053672 20.81024461 -36.69472941 27.68934074 -35.84765625 35.6328125 C-34.30789249 40.51297286 -31.92677583 44.25938758 -28.78515625 48.2578125 C-24.02289096 50.48695796 -19.00532362 50.39411713 -13.84765625 49.6328125 C-10.60894377 48.20574034 -9.19693841 47.26832588 -7.484375 44.15234375 C-7.17113281 43.25902344 -6.85789062 42.36570312 -6.53515625 41.4453125 C-5.97828125 39.8571875 -5.42140625 38.2690625 -4.84765625 36.6328125 C0.10234375 36.6328125 5.05234375 36.6328125 10.15234375 36.6328125 C8.5037819 45.42514235 6.4247914 52.65799043 -0.8828125 58.3125 C-9.43345141 64.05825736 -17.4460849 64.81537454 -27.5859375 63.1953125 C-35.5578639 61.21162941 -41.57730842 57.29603789 -45.9296875 50.2734375 C-51.08259579 40.63139839 -53.87461091 30.55158875 -51.09375 19.6875 C-47.67140285 9.83650859 -42.09782002 1.15265007 -32.42578125 -3.54296875 C-21.18660934 -7.31918734 -10.20636829 -5.82722565 0 0 Z " fill="#369979" transform="translate(411.84765625,574.3671875)"/>
<path d="M0 0 C17.82 0 35.64 0 54 0 C54 3.96 54 7.92 54 12 C47.73 12 41.46 12 35 12 C35 29.49 35 46.98 35 65 C30.05 65 25.1 65 20 65 C20 47.51 20 30.02 20 12 C13.4 12 6.8 12 0 12 C0 8.04 0 4.08 0 0 Z " fill="#339977" transform="translate(209,571)"/>
<path d="M0 0 C5.39738531 6.38357423 6.37660943 12.90915683 6.27734375 21.08203125 C5.68766305 27.28613661 3.69001861 32.94377084 -1.125 37.0625 C-6.62255875 40.76737655 -11.46823436 40.59068392 -18 40 C-23.53866604 37.58312755 -26.49561343 33.367443 -29 28 C-29.67154668 24.79937935 -29.70350443 21.76055085 -29.625 18.5 C-29.65400391 17.29537109 -29.65400391 17.29537109 -29.68359375 16.06640625 C-29.63356943 9.89340576 -27.84080376 5.80543776 -24 1 C-16.95606341 -5.70032993 -7.78282855 -5.85751667 0 0 Z " fill="#F7FDFB" transform="translate(505,585)"/>
<path d="M0 0 C4.62 0 9.24 0 14 0 C14 21.45 14 42.9 14 65 C9.38 65 4.76 65 0 65 C0 43.55 0 22.1 0 0 Z " fill="#2D9774" transform="translate(304,571)"/>
<path d="M0 0 C4.21779303 1.50635465 5.7747674 4.24012422 8 8 C9.22117194 11.66351581 9.18406354 15.06052972 9.1875 18.875 C9.19974609 19.58269531 9.21199219 20.29039062 9.22460938 21.01953125 C9.23610322 25.13432929 8.8346938 28.30160538 7 32 C6.34 32 5.68 32 5 32 C4.938125 32.721875 4.87625 33.44375 4.8125 34.1875 C3.71945484 37.97111788 2.02309244 39.51434621 -1 42 C-4.87202684 43.73846103 -6.98590612 44.19127947 -11 43 C-9.824375 42.505 -8.64875 42.01 -7.4375 41.5 C-1.7976917 38.68510456 2.35085151 34.29829698 5.16796875 28.6640625 C7.47701597 21.27077516 7.03759512 13.1499721 3.5625 6.25 C2.73132791 4.81972097 1.88194347 3.39954309 1 2 C0.67 1.34 0.34 0.68 0 0 Z " fill="#FDF4D0" transform="translate(623,250)"/>
<path d="M0 0 C0.99 0.33 1.98 0.66 3 1 C-0.20585819 3.6562825 -3.43675019 5.86205011 -7 8 C-8.299375 9.051875 -8.299375 9.051875 -9.625 10.125 C-12 12 -12 12 -15 13 C-15.95382697 14.41191492 -16.90177145 15.82844179 -17.80859375 17.27099609 C-20.0024159 20.45473553 -22.76625844 23.09425584 -25.5 25.8125 C-26.06847656 26.39708984 -26.63695312 26.98167969 -27.22265625 27.58398438 C-27.77824219 28.14021484 -28.33382813 28.69644531 -28.90625 29.26953125 C-29.40447266 29.77073486 -29.90269531 30.27193848 -30.41601562 30.78833008 C-32.24387433 32.18655183 -33.75424326 32.59060462 -36 33 C-28.35772723 21.76136357 -18.4432372 12.2991623 -7.3125 4.5625 C-6.62945801 4.08385498 -5.94641602 3.60520996 -5.24267578 3.11206055 C-3.30078125 1.81640625 -3.30078125 1.81640625 0 0 Z " fill="#3A9679" transform="translate(507,230)"/>
<path d="M0 0 C0.99 0.33 1.98 0.66 3 1 C5.81731465 6.88593905 6.48651095 11.90736462 6.375 18.375 C6.36702393 19.20628418 6.35904785 20.03756836 6.35083008 20.89404297 C6.21631228 26.69817381 6.0112868 32.86965952 3 38 C1.515 38.495 1.515 38.495 0 39 C0.2165625 38.49855469 0.433125 37.99710938 0.65625 37.48046875 C4.85944438 26.05789883 4.84556607 11.21979286 0 0 Z " fill="#E1F9F7" transform="translate(521,584)"/>
<path d="M0 0 C2.46800047 1.15173355 4.04783565 2.04783565 6 4 C7.98821313 4.39764263 9.98944339 4.73775349 12 5 C12 5.66 12 6.32 12 7 C13.93719378 7.05406122 15.87481921 7.09282025 17.8125 7.125 C18.89144531 7.14820313 19.97039063 7.17140625 21.08203125 7.1953125 C24.19402868 7.23023717 24.19402868 7.23023717 27 5 C29.33199388 4.92094936 31.66832622 4.91201231 34 5 C28.96881714 9.42744092 22.86692713 10.49082054 16.3359375 10.3125 C10.54992346 9.5384513 5.70781472 7.23189524 1.9375 2.75 C0.9784375 1.38875 0.9784375 1.38875 0 0 Z " fill="#EDC463" transform="translate(585,285)"/>
<path d="M0 0 C0.99 0.33 1.98 0.66 3 1 C-3.6 7.6 -10.2 14.2 -17 21 C-17.66 20.67 -18.32 20.34 -19 20 C-17.15267195 17.78563304 -15.29753023 15.57865917 -13.4375 13.375 C-12.92380859 12.75753906 -12.41011719 12.14007813 -11.88085938 11.50390625 C-4.32389351 2.58574778 -4.32389351 2.58574778 0 0 Z " fill="#EDFCF9" transform="translate(514,269)"/>
<path d="M0 0 C2.40179685 2.40179685 2.25598087 2.96950007 2.265625 6.24609375 C2.26820313 7.08333984 2.27078125 7.92058594 2.2734375 8.78320312 C2.26570313 9.65912109 2.25796875 10.53503906 2.25 11.4375 C2.25773437 12.30955078 2.26546875 13.18160156 2.2734375 14.08007812 C2.27085937 14.91861328 2.26828125 15.75714844 2.265625 16.62109375 C2.26336914 17.3886499 2.26111328 18.15620605 2.25878906 18.94702148 C2 21 2 21 0 24 C-1.29146413 20.06410933 -1.14724266 16.09264868 -1.125 12 C-1.12886719 11.2884375 -1.13273437 10.576875 -1.13671875 9.84375 C-1.13033978 6.42461983 -1.07200732 3.26706994 0 0 Z " fill="#4D9B7F" transform="translate(462,592)"/>
<path d="M0 0 C0.66 0.33 1.32 0.66 2 1 C-3.79137777 7.55808499 -9.74700288 13.88004538 -16 20 C-16.66 19.67 -17.32 19.34 -18 19 C-12.36531717 12.2883812 -6.24063576 6.13907026 0 0 Z " fill="#E5F9F5" transform="translate(190,400)"/>
<path d="M0 0 C0.66 0.33 1.32 0.66 2 1 C0.43898481 3.35516272 -1.12376949 5.70914104 -2.6875 8.0625 C-3.12255859 8.71927734 -3.55761719 9.37605469 -4.00585938 10.05273438 C-6.91899135 14.43322171 -9.92128268 18.73417366 -13 23 C-14.125 19.25 -14.125 19.25 -13 17 C-12.34 17 -11.68 17 -11 17 C-11 16.34 -11 15.68 -11 15 C-10.34 15 -9.68 15 -9 15 C-9 14.01 -9 13.02 -9 12 C-8.34 12 -7.68 12 -7 12 C-6.67 10.68 -6.34 9.36 -6 8 C-5.34 8 -4.68 8 -4 8 C-3.71125 6.865625 -3.4225 5.73125 -3.125 4.5625 C-2.75375 3.386875 -2.3825 2.21125 -2 1 C-1.34 0.67 -0.68 0.34 0 0 Z " fill="#42967C" transform="translate(468,324)"/>
<path d="M0 0 C0 0.66 0 1.32 0 2 C-0.86625 2.53625 -1.7325 3.0725 -2.625 3.625 C-7.70389477 6.8308272 -10.77319253 11.89690147 -13.75 17 C-14.1625 17.66 -14.575 18.32 -15 19 C-15.66 19 -16.32 19 -17 19 C-14.71436893 11.00029127 -10.51957036 5.92982291 -4 1 C-2 0 -2 0 0 0 Z " fill="#439273" transform="translate(480,572)"/>
<path d="M0 0 C0.99 0.33 1.98 0.66 3 1 C-1.21622194 6.21480082 -5.79516309 10.65149963 -10.828125 15.08203125 C-12.2580902 16.34482426 -13.65102878 17.65102878 -15 19 C-15.99 18.67 -16.98 18.34 -18 18 C-17.53851563 17.62230469 -17.07703125 17.24460937 -16.6015625 16.85546875 C-10.49733764 11.70427504 -5.27578123 5.97849799 0 0 Z " fill="#3D9077" transform="translate(414,341)"/>
<path d="M0 0 C1.0209375 0.433125 1.0209375 0.433125 2.0625 0.875 C10.05925625 3.9375875 17.45157948 4.54945911 26 5 C23.48577752 7.51422248 22.54922872 7.3249752 19.0625 7.375 C12.14039326 7.27454726 6.14408208 5.07204104 0 2 C0 1.34 0 0.68 0 0 Z " fill="#4A967E" transform="translate(474,631)"/>
<path d="M0 0 C2.59892085 1.29946042 3.31618417 2.93348773 4.39453125 5.56640625 C6.1225301 12.51184677 6.08040934 20.49555 3 27 C2.67 27 2.34 27 2 27 C2.01047363 26.39526855 2.02094727 25.79053711 2.03173828 25.16748047 C2.07354668 22.4033633 2.09940451 19.63931292 2.125 16.875 C2.14175781 15.92367188 2.15851562 14.97234375 2.17578125 13.9921875 C2.21104528 8.91416745 2.03333617 4.75512475 0 0 Z " fill="#ECBF5C" transform="translate(625,254)"/>
<path d="M0 0 C3.5 1.5 3.5 1.5 6 3 C3.20077935 4.00771943 1.68899022 3.94718702 -1.3125 3.4375 C-5.45363819 2.94617852 -8.07371923 3.71640821 -12 5 C-12.99 5 -13.98 5 -15 5 C-9.85269767 0.80088494 -6.74872215 -0.74985802 0 0 Z " fill="#D5F3EC" transform="translate(396,581)"/>
<path d="M0 0 C0.99 0.33 1.98 0.66 3 1 C2.46890625 1.4125 1.9378125 1.825 1.390625 2.25 C-4.71364219 7.24034982 -8.08899381 11.74863779 -9.75 19.5 C-9.8325 20.325 -9.915 21.15 -10 22 C-10.66 21.67 -11.32 21.34 -12 21 C-11.3708307 12.03433743 -8.37845368 6.81370566 -1.68359375 0.96875 C-1.12800781 0.6490625 -0.57242188 0.329375 0 0 Z " fill="#53955A" transform="translate(589,246)"/>
<path d="M0 0 C0 0.66 0 1.32 0 2 C-0.61875 2.0825 -1.2375 2.165 -1.875 2.25 C-4.1346633 2.77905978 -4.1346633 2.77905978 -4.9375 4.75 C-5.288125 5.4925 -5.63875 6.235 -6 7 C-8.5 9.75 -8.5 9.75 -11 12 C-11.66 12 -12.32 12 -13 12 C-12.45550236 8.20527027 -10.96207612 6.72968732 -8.0625 4.3125 C-7.35222656 3.71050781 -6.64195313 3.10851562 -5.91015625 2.48828125 C-3.80554985 0.84849589 -2.68917384 0 0 0 Z " fill="#3E967A" transform="translate(120,429)"/>
<path d="M0 0 C-3.22127045 1.67228633 -6.51577495 3.06560274 -9.875 4.4375 C-13.1830439 5.80105956 -16.44962785 7.16193527 -19.625 8.8125 C-22 10 -22 10 -24 10 C-23.67 9.01 -23.34 8.02 -23 7 C-21.68 7 -20.36 7 -19 7 C-19 6.34 -19 5.68 -19 5 C-16.77417611 4.15665671 -14.54503974 3.32521449 -12.3125 2.5 C-11.37374023 2.14228516 -11.37374023 2.14228516 -10.41601562 1.77734375 C-6.81807701 0.4587275 -3.83479747 -0.29329235 0 0 Z " fill="#D5F5EE" transform="translate(211,349)"/>
<path d="M0 0 C0.33 0 0.66 0 1 0 C0.88581333 2.58422459 0.75907638 5.16679513 0.625 7.75 C0.5940625 8.47960937 0.563125 9.20921875 0.53125 9.9609375 C0.3251506 13.73942656 0.08487157 16.77946668 -2 20 C-3.20083241 16.39750276 -2.95150744 13.78279324 -2.6875 10 C-2.60886719 8.7625 -2.53023437 7.525 -2.44921875 6.25 C-2 3 -2 3 0 0 Z " fill="#CCE9E4" transform="translate(155,443)"/>
<path d="M0 0 C1.4550293 0.01353516 1.4550293 0.01353516 2.93945312 0.02734375 C5.31406407 0.05073893 7.68814776 0.08351824 10.0625 0.125 C10.0625 0.455 10.0625 0.785 10.0625 1.125 C8.89074219 1.16238281 7.71898437 1.19976562 6.51171875 1.23828125 C-2.3317084 1.58565453 -10.50406159 2.17143897 -18.9375 5.125 C-18.6075 4.135 -18.2775 3.145 -17.9375 2.125 C-12.04376833 -0.29007051 -6.29131927 -0.11180745 0 0 Z " fill="#57A28B" transform="translate(229.9375,381.875)"/>
<path d="M0 0 C3 1 3 1 4.1796875 2.91796875 C5.37121343 7.39470189 5.20969107 11.70335122 5.125 16.3125 C5.11597656 17.24384766 5.10695313 18.17519531 5.09765625 19.13476562 C5.07418263 21.4234436 5.04134729 23.71158672 5 26 C4.67 26 4.34 26 4 26 C3.96261719 24.96101562 3.92523437 23.92203125 3.88671875 22.8515625 C3.53207428 14.83986525 2.89460661 7.57331038 0 0 Z " fill="#C7EBE6" transform="translate(521,584)"/>
<path d="M0 0 C0.66 0.33 1.32 0.66 2 1 C-1.651893 6.41995647 -5.14889642 11.58990583 -10 16 C-9.49396008 13.83125748 -9.00016187 12.00032373 -8 10 C-7.34 10 -6.68 10 -6 10 C-6 9.34 -6 8.68 -6 8 C-5.34 8 -4.68 8 -4 8 C-3.34 6.02 -2.68 4.04 -2 2 C-1.34 2 -0.68 2 0 2 C0 1.34 0 0.68 0 0 Z " fill="#DDF9F2" transform="translate(430,317)"/>
<path d="M0 0 C-4.45029503 3.52954433 -7.54880215 4.12313116 -13.1875 4.0625 C-14.81751953 4.04896484 -14.81751953 4.04896484 -16.48046875 4.03515625 C-17.31191406 4.02355469 -18.14335938 4.01195312 -19 4 C-19 3.67 -19 3.34 -19 3 C-18.38511719 2.95101563 -17.77023437 2.90203125 -17.13671875 2.8515625 C-16.32847656 2.77679688 -15.52023437 2.70203125 -14.6875 2.625 C-13.88699219 2.55539062 -13.08648438 2.48578125 -12.26171875 2.4140625 C-7.58357561 1.55761488 -5.18770536 -0.19576247 0 0 Z " fill="#EBBD50" transform="translate(619,290)"/>
<path d="M0 0 C0.99 0 1.98 0 3 0 C1.4169423 4.2742558 -1.50568404 6.26531794 -5 9 C-5.33 8.01 -5.66 7.02 -6 6 C-5.34 6 -4.68 6 -4 6 C-4 5.34 -4 4.68 -4 4 C-3.01 4 -2.02 4 -1 4 C-0.67 2.68 -0.34 1.36 0 0 Z " fill="#4C9C84" transform="translate(184,402)"/>
<path d="M0 0 C2.11299851 3.16949777 2.25293119 3.50595175 1.75 7 C1.66234375 7.680625 1.5746875 8.36125 1.484375 9.0625 C1 11 1 11 -1 14 C-1.02685938 11.85423363 -1.04633088 9.70837355 -1.0625 7.5625 C-1.07410156 6.36753906 -1.08570313 5.17257812 -1.09765625 3.94140625 C-1 1 -1 1 0 0 Z " fill="#419A84" transform="translate(523,605)"/>
<path d="M0 0 C-5.94 3.465 -5.94 3.465 -12 7 C-12.33 6.01 -12.66 5.02 -13 4 C-12.01 4 -11.02 4 -10 4 C-10 3.34 -10 2.68 -10 2 C-3.375 -1.125 -3.375 -1.125 0 0 Z " fill="#45977F" transform="translate(207,390)"/>
<path d="M0 0 C0.33 0 0.66 0 1 0 C1.09765625 6.15234375 1.09765625 6.15234375 1 8 C0.67 8.33 0.34 8.66 0 9 C-0.23192865 10.51469448 -0.41215238 12.03754562 -0.5625 13.5625 C-0.64628906 14.38878906 -0.73007812 15.21507812 -0.81640625 16.06640625 C-0.87699219 16.70449219 -0.93757813 17.34257813 -1 18 C-1.33 18 -1.66 18 -2 18 C-2.20852314 11.59370576 -2.1583195 6.07027358 0 0 Z " fill="#76B098" transform="translate(362,590)"/>
<path d="M0 0 C0.33 0.99 0.66 1.98 1 3 C-1.64 5.31 -4.28 7.62 -7 10 C-7.66 9.67 -8.32 9.34 -9 9 C-6.03 6.03 -3.06 3.06 0 0 Z " fill="#D8F3ED" transform="translate(434,372)"/>
<path d="M0 0 C4.12751449 0.60698743 7.3321148 2.03810791 11 4 C10.34 4.66 9.68 5.32 9 6 C4.64464931 4.83857315 2.35380297 3.92300495 0 0 Z " fill="#3B9579" transform="translate(270,355)"/>
<path d="M0 0 C0.66 0.33 1.32 0.66 2 1 C-0.31 4.63 -2.62 8.26 -5 12 C-5.33 10.68 -5.66 9.36 -6 8 C-5.34 8 -4.68 8 -4 8 C-3.7834375 7.071875 -3.7834375 7.071875 -3.5625 6.125 C-3 4 -3 4 -2 2 C-1.34 2 -0.68 2 0 2 C0 1.34 0 0.68 0 0 Z " fill="#E0FAF4" transform="translate(438,305)"/>
<path d="M0 0 C0.33 0.66 0.66 1.32 1 2 C-0.20850753 5.07620099 -1.52221785 8.0444357 -3 11 C-3.66 11 -4.32 11 -5 11 C-3.77472971 6.94718288 -2.30119506 3.55639236 0 0 Z " fill="#4C9578" transform="translate(468,580)"/>
<path d="M0 0 C0.66 0 1.32 0 2 0 C0.33248852 3.94139078 -2.22710649 6.7892812 -5 10 C-5.33 9.01 -5.66 8.02 -6 7 C-4.1875 4.3125 -4.1875 4.3125 -2 2 C-1.34 2 -0.68 2 0 2 C0 1.34 0 0.68 0 0 Z " fill="#DEF9F4" transform="translate(418,333)"/>
<path d="M0 0 C0.66 0.33 1.32 0.66 2 1 C-0.97 4.3 -3.94 7.6 -7 11 C-7.33 10.01 -7.66 9.02 -8 8 C-5.36 5.36 -2.72 2.72 0 0 Z " fill="#D0EEE7" transform="translate(511,271)"/>
<path d="M0 0 C0.66 0.33 1.32 0.66 2 1 C-0.31 3.97 -2.62 6.94 -5 10 C-5.33 9.01 -5.66 8.02 -6 7 C-4.1875 4.3125 -4.1875 4.3125 -2 2 C-1.34 2 -0.68 2 0 2 C0 1.34 0 0.68 0 0 Z " fill="#DEFAF4" transform="translate(468,263)"/>
<path d="M0 0 C0.33 0.99 0.66 1.98 1 3 C-0.4375 5.1875 -0.4375 5.1875 -2 7 C-3.32 6.67 -4.64 6.34 -6 6 C-4.02 4.02 -2.04 2.04 0 0 Z " fill="#459B80" transform="translate(161,378)"/>
<path d="M0 0 C0.99 0.33 1.98 0.66 3 1 C1.35 2.65 -0.3 4.3 -2 6 C-2.33 5.01 -2.66 4.02 -3 3 C-2.01 2.01 -1.02 1.02 0 0 Z " fill="#3C9A7E" transform="translate(414,341)"/>
<path d="M0 0 C1.875 0.25 1.875 0.25 4 1 C5.0625 2.875 5.0625 2.875 6 5 C7.5412312 6.70921589 7.5412312 6.70921589 9 8 C5.08158173 6.69386058 2.67359191 5.16870152 0 2 C0 1.34 0 0.68 0 0 Z " fill="#3B9075" transform="translate(108,468)"/>
<path d="M0 0 C0.66 0 1.32 0 2 0 C1.67 0.99 1.34 1.98 1 3 C-2.375 4.125 -2.375 4.125 -6 5 C-6.99 5.33 -7.98 5.66 -9 6 C-8.67 5.01 -8.34 4.02 -8 3 C-5.36 2.67 -2.72 2.34 0 2 C0 1.34 0 0.68 0 0 Z " fill="#D3F2EA" transform="translate(122,426)"/>
<path d="M0 0 C0.66 0 1.32 0 2 0 C0.68775452 3.93673644 -0.91910327 6.22719294 -4 9 C-3.35494404 5.51669784 -2.01782732 2.90567134 0 0 Z " fill="#D9F6F0" transform="translate(448,290)"/>
<path d="M0 0 C-3.85756507 2.15305957 -6.55129785 3.39253254 -11 3 C-7.18178484 -0.02823961 -4.81391924 -1.49397494 0 0 Z " fill="#CFF1E7" transform="translate(222,385)"/>
<path d="M0 0 C0.66 0.33 1.32 0.66 2 1 C-0.475 4.465 -0.475 4.465 -3 8 C-3.33 7.01 -3.66 6.02 -4 5 C-2.0625 2.3125 -2.0625 2.3125 0 0 Z " fill="#E1FAF6" transform="translate(460,273)"/>
<path d="M0 0 C0.99 0.33 1.98 0.66 3 1 C0.47043472 4.0916909 -2.22454612 4.90931332 -6 6 C-4 4 -2 2 0 0 Z " fill="#45997F" transform="translate(495,238)"/>
</svg>
